# xmcd
#
# Track frame offsets:
#  150
#  13947
#  33085
#  47474
#  63631
#  77977
#  91922
#  106630
#  122066
#  135809
#  148219
#
# Disc length: 2154 seconds
#
# Revision: 0
# Processed by: cddbd v1.5.2PL0 Copyright (c) Steve Scherf et al.
# Submitted via: Collectorz.com_Music_Collector 6.11
#
DISCID=8808680b
DTITLE=Billy Yates - Just Be You
DYEAR=2011
DGENRE=
TTITLE0=MFC (Mama's Fried Chicken)
TTITLE1=Till Someone Gets Hurt
TTITLE2=What Goes Around
TTITLE3=Our House Of Love
TTITLE4=She's My Country Girl
TTITLE5=Drunk On Love
TTITLE6=My Daddy Was A Chevy Man
TTITLE7=Just Be You
TTITLE8=A Mother's Love (featuring Grayson Yates)
TTITLE9=On My Way (The Norway Song)
TTITLE10=What Goes Around (dance remix)
EXTD=
EXTT0=
EXTT1=
EXTT2=
EXTT3=
EXTT4=
EXTT5=
EXTT6=
EXTT7=
EXTT8=
EXTT9=
EXTT10=
PLAYORDER=
